# xmcd CD database file
#
# Track frame offsets:
#	150
#	25195
#	46312
#	67403
#	98878
#	119605
#	137203
#	155988
#	178696
#	198136
#	214180
#	230213
#	246573
#	282397
#
# Disc length: 4020 seconds
#
# Revision: 0
# Processed by: cddbd v1.5.1PL0 Copyright (c) Steve Scherf et al.
# Submitted via: CDex 1.51
#
DISCID=e50fb20e
DTITLE=Sergio Cammariere - Dalla Pace Del Mare Lontano
DYEAR=2001
DGENRE=Jazz
TTITLE0=Sorella mia
TTITLE1=Tempo perduto
TTITLE2=Via da questo mare
TTITLE3=Cambiamenti del mondo
TTITLE4=Dalla pace del mare lontano
TTITLE5=Apri la porta
TTITLE6=Canto nel vento
TTITLE7=Le porte del sogno
TTITLE8=Il mare
TTITLE9=Per ricordarmi di te
TTITLE10=Paese di goal
TTITLE11=Vista d'artista
TTITLE12=Cantautore piccolino
TTITLE13=Tutto quello che un uomo
EXTD=YEAR: 2001
EXTT0=
EXTT1=
EXTT2=
EXTT3=
EXTT4=
EXTT5=
EXTT6=
EXTT7=
EXTT8=
EXTT9=
EXTT10=
EXTT11=
EXTT12=
EXTT13=
PLAYORDER=
